<svg xmlns="http://www.w3.org/2000/svg" viewBox="0 0 64 64" role="img" aria-label="MTG tournament favicon">
  <defs>
    <linearGradient id="bg" x1="0" y1="0" x2="1" y2="1">
      <stop offset="0%" stop-color="#0f1b32"/>
      <stop offset="100%" stop-color="#162543"/>
    </linearGradient>
    <linearGradient id="shield" x1="0" y1="0" x2="0" y2="1">
      <stop offset="0%" stop-color="#2f5e56"/>
      <stop offset="100%" stop-color="#234944"/>
    </linearGradient>
  </defs>

  <rect x="2" y="2" width="60" height="60" rx="14" fill="url(#bg)"/>

  <path d="M32 10 48 16v13c0 12-8 20-16 25-8-5-16-13-16-25V16z" fill="url(#shield)" stroke="#c4b991" stroke-width="1.5"/>

  <path d="M24 26h16c0 5-2.4 9-8 9s-8-4-8-9z" fill="#f3efe4"/>
  <rect x="30" y="35" width="4" height="8" fill="#f3efe4"/>
  <rect x="26" y="43" width="12" height="3" rx="1.5" fill="#f3efe4"/>

  <path d="M32 8l2.1 4.4L39 13l-3.5 3.4.8 4.7L32 18.7l-4.3 2.4.8-4.7L25 13l4.9-.6z" fill="#7d2f2f"/>
</svg>
